<svg clip-rule="evenodd" fill-rule="evenodd" stroke-linejoin="round" stroke-miterlimit="1.414" viewBox="0 0 16 16" xmlns="http://www.w3.org/2000/svg"><path d="M14.736 10.486a1.264 1.264 0 0 0-.303-.039l-.013.002a10.467 10.467 0 0 1-4.115-1.428L8.399 10.97c-1.409-.95-2.631-2.22-3.581-3.533h-.005.005l1.909-1.949A10.561 10.561 0 0 1 5.3 1.352l.003-.024c0-.105-.016-.211-.039-.308A1.319 1.319 0 0 0 3.986 0H1.317C.601 0 .02.573.003 1.285c0 .011-.003.021-.003.032 0 .077.01.151.022.223a15.722 15.722 0 0 0 2.903 7.711 15.816 15.816 0 0 0 3.577 3.574 15.727 15.727 0 0 0 7.704 2.902c.074.013.15.023.227.023.011 0 .022-.003.033-.004a1.313 1.313 0 0 0 1.284-1.313v-2.669c0-.622-.434-1.142-1.014-1.278" fill="#244c8e" fill-rule="nonzero"/></svg>