<svg id="icon-Youtube" viewBox="0 0 86 86" xmlns="http://www.w3.org/2000/svg">
	<g transform="matrix(1,0,0,1,-10897.5,-1165.64)">
		<g transform="matrix(0.506112,0,0,0.506112,10970,1223.43)">
			<path d="M0,-58.482C-1.397,-63.709 -5.514,-67.825 -10.741,-69.222C-20.215,-71.761 -58.204,-71.761 -58.204,-71.761C-58.204,-71.761 -96.193,-71.761 -105.667,-69.222C-110.894,-67.825 -115.011,-63.709 -116.408,-58.482C-118.946,-49.008 -118.946,-29.241 -118.946,-29.241C-118.946,-29.241 -118.946,-9.474 -116.408,-0.001C-115.011,5.226 -110.894,9.343 -105.667,10.74C-96.193,13.279 -58.204,13.279 -58.204,13.279C-58.204,13.279 -20.215,13.279 -10.741,10.74C-5.514,9.343 -1.397,5.226 0,-0.001C2.539,-9.474 2.539,-29.241 2.539,-29.241C2.539,-29.241 2.539,-49.008 0,-58.482" style="fill:none;stroke:white;stroke-opacity:0.7;stroke-width:3.95px;"></path>
		</g>
		<g transform="matrix(0.506112,0,0,0.506112,10934.3,1199.41)">
			<path d="M0,36.446L31.562,18.223L0,0L0,36.446Z" style="fill:rgb(78,212,1);fill-rule:nonzero;"></path>
		</g>
	</g>
</svg>