<svg id="icon-Graduates" viewBox="0 0 86 86" xmlns="http://www.w3.org/2000/svg">
	<g transform="matrix(0.921364,0,0,0.921364,-533.738,-964.755)">
		<g>
			<g opacity="0.7">
				<g transform="matrix(1,0,0,1,614.833,1084.16)">
					<path d="M0,0.625C7.985,-7.362 30.649,-20.049 35.948,-14.749C41.246,-9.451 28.035,12.688 20.049,20.674" style="fill:none;stroke:white;stroke-width:2.17px;"></path>
				</g>
				<g transform="matrix(1,0,0,1,640.751,1103.32)">
					<path d="M0,-6.074C0,-6.074 -1.336,12.884 -12.743,18.446C-12.743,18.446 -22.246,6.443 -26.548,2.141C-30.849,-2.159 -22.246,6.374 -27.11,1.51C-31.976,-3.355 -42.909,-11.719 -42.909,-11.719C-37.023,-22.959 -18.447,-24.52 -18.447,-24.52" style="fill:none;stroke:white;stroke-width:2.17px;"></path>
				</g>
				<g transform="matrix(1,0,0,1,618.927,1108.08)">
					<path d="M0,4.613C-1.335,5.95 5.638,17.591 -9.646,2.307C-24.93,-12.978 -13.289,-6.005 -11.953,-7.34" style="fill:none;stroke:white;stroke-width:2.17px;"></path>
				</g>
				<g transform="matrix(0.707135,0.707079,0.707079,-0.707135,643.235,1067.66)">
					<path d="M-2.62,-6.326L15.273,-6.326" style="fill:none;stroke:white;stroke-width:2.17px;"></path>
				</g>
			</g>
		</g>
		<g transform="matrix(0.707148,-0.707066,-0.707066,-0.707148,633.792,1094.24)">
			<path d="M-4.997,-0.17C-8.376,-0.171 -11.114,2.568 -11.114,5.948C-11.115,9.327 -8.376,12.065 -4.997,12.065C-1.618,12.065 5.709,9.327 5.709,5.948C5.709,2.569 -1.617,-0.17 -4.997,-0.17Z" style="fill:none;stroke:rgb(78,212,1);stroke-width:2.17px;"></path>
		</g>
	</g>
</svg>