<svg id="icon-Coaches" viewBox="0 0 86 86" width="100%" height="100%" xmlns="http://www.w3.org/2000/svg">
	<g transform="matrix(1.05287,0,0,1.05287,-715.501,-1260.86)">
		<g transform="matrix(1,0,0,1,721.392,1217.84)">
			<path d="M0,20.886L2.347,16.243C5.862,12.728 5.86,7.03 2.347,3.516C-1.168,0.001 -6.866,0 -10.382,3.516C-13.896,7.031 -13.896,12.729 -10.382,16.243L-8.049,20.886" style="fill:none;stroke:rgb(78,212,1);stroke-width:1.9px;"></path>
		</g>
		<g transform="matrix(0.992744,-0.120246,-0.120246,-0.992744,713.462,1242.17)">
			<path d="M-0.029,0.485L8.029,0.485" style="fill:none;stroke:rgb(78,212,1);stroke-width:1.9px;"></path>
		</g>
		<g transform="matrix(0.992744,-0.120246,-0.120246,-0.992744,713.462,1245.17)">
			<path d="M-0.029,0.485L8.029,0.485" style="fill:none;stroke:rgb(78,212,1);stroke-width:1.9px;"></path>
		</g>
		<g transform="matrix(1,0,0,1,719.351,1248.72)">
			<path d="M0,-2C0,-0.896 -0.896,0 -2,0C-3.105,0 -4,-0.896 -4,-2" style="fill:none;stroke:rgb(78,212,1);stroke-width:1.9px;"></path>
		</g>
		<g transform="matrix(0.707107,-0.707107,-0.707107,-0.707107,714.875,1228.76)">
			<path d="M-1.036,2.5C0.918,4.454 4.083,4.453 6.036,2.5" style="fill:none;stroke:rgb(78,212,1);stroke-width:1.9px;"></path>
		</g>
		<g transform="matrix(1,0,0,1,738.505,1213.56)">
			<path d="M0,14.39C0,2.82 -9.38,-6.56 -20.95,-6.56C-32.521,-6.56 -41.901,2.82 -41.901,14.39C-41.901,16.681 -41.533,18.886 -40.854,20.95" style="fill:none;stroke:white;stroke-opacity:0.7;stroke-width:1.9px;"></path>
		</g>
		<g transform="matrix(1,0,0,1,738.505,1269.76)">
			<path d="M0,-41.811C0,-38.757 4.379,-27.802 5.71,-26.137L0.051,-26.137L0.051,-14.968C0.051,-13.598 -1.061,-12.487 -2.432,-12.487L-12.768,-12.487C-12.768,-12.487 -16.43,-3.497 -16.097,0C-26.418,-0.666 -39.903,-6.827 -41.901,-9.157C-38.738,-17.814 -38.636,-26.387 -40.851,-35.251" style="fill:none;stroke:white;stroke-opacity:0.7;stroke-width:1.9px;"></path>
		</g>
	</g>
</svg>