<svg id="icon-Salary" viewBox="0 0 86 86" width="100%" height="100%" xmlns="http://www.w3.org/2000/svg">
	<g transform="matrix(4.85206e-17,-0.792402,0.792402,4.85206e-17,-1138.55,613.382)">
		<g>
			<g opacity="0.7">
				<g transform="matrix(1,-1.2326e-32,0,1,755.708,1465.47)">
					<path d="M0,22.221L0,6.837C0,3.076 -3.076,0 -6.837,0L-16.104,0" style="fill:none;stroke:white;stroke-width:2.52px;"></path>
				</g>
				<g transform="matrix(0.5,-6.16298e-33,0,0.5,-4919.5,792)">
					<path d="M11350.4,1425.56L11350.4,1456.33C11350.4,1463.85 11344.3,1470 11336.7,1470L11213.7,1470C11206.2,1470 11200,1463.85 11200,1456.33L11200,1358.61C11200,1353.08 11206.2,1346.93 11213.7,1346.93L11255.4,1346.93" style="fill:none;stroke:white;stroke-width:5.05px;"></path>
				</g>
				<g transform="matrix(1,-1.2326e-32,0,1,759.127,1487.69)">
					<path d="M0,17.093L-10.255,17.093C-14.983,17.093 -18.805,13.266 -18.805,8.547C-18.805,3.828 -14.983,0 -10.255,0L0,0L0,17.093Z" style="fill:none;stroke:white;stroke-width:2.52px;"></path>
				</g>
				<g transform="matrix(1,-1.2326e-32,0,1,752.5,1496.5)">
					<path d="M0,0C0,1.657 -1.343,3 -3,3C-4.657,3 -6,1.657 -6,0C-6,-1.657 -4.657,-3 -3,-3C-1.343,-3 0,-1.657 0,0" style="fill:white;fill-rule:nonzero;"></path>
				</g>
			</g>
		</g>
		<g transform="matrix(1,0,0,1,745.453,1454.24)">
			<path d="M0,20.947L-9.967,4.382C-11.848,1.127 -16.051,0 -19.308,1.882L-54.042,20.947" style="fill:none;stroke:rgb(78,212,1);stroke-width:2.52px;"></path>
		</g>
		<g transform="matrix(1,0,0,1,687.337,1475.72)">
			<path d="M0,0L61.534,0" style="fill:none;stroke:rgb(78,212,1);stroke-width:2.52px;"></path>
		</g>
	</g>
</svg>