<svg id="icon-Cities" viewBox="0 0 86 86" width="100%" height="100%" xmlns="http://www.w3.org/2000/svg">
	<g transform="matrix(0.869825,0,0,0.869825,-53.4103,-804.986)">
		<g>
			<g opacity="0.7">
				<g transform="matrix(-0.552113,0,0,0.533816,131,956.785)">
					<path d="M-4.891,-4.624C-9.692,-9.677 -16.301,-18.237 -16.301,-27.071C-16.301,-35.676 -9.265,-43.086 0,-43.086C9.264,-43.086 16.301,-35.676 16.301,-27.071C16.301,-24.014 15.481,-20.967 14.209,-18.079" style="fill:none;stroke:white;stroke-width:4.23px;"></path>
				</g>
				<g transform="matrix(0.552113,0,0,0.533816,131,939.416)">
					<path d="M0,10.868C-3.061,10.868 -5.542,8.435 -5.542,5.434C-5.542,2.433 -3.061,0 0,0C3.061,0 5.542,2.433 5.542,5.434C5.542,8.435 3.061,10.868 0,10.868" style="fill:none;stroke:white;stroke-width:4.23px;stroke-linejoin:round;stroke-miterlimit:1.41421;"></path>
				</g>
				<g transform="matrix(-1.52173,0,0,1.52173,114.194,1010.85)">
					<path d="M5.25,-5.071C2.342,-1.931 0,0 0,0C0,0 -16.301,-13.196 -16.301,-27.071C-16.301,-35.676 -9.265,-43.086 0,-43.086C9.264,-43.086 16.301,-35.676 16.301,-27.071C16.301,-24.409 15.679,-21.755 14.679,-19.206" style="fill:none;stroke:white;stroke-width:1.51px;"></path>
				</g>
				<g transform="matrix(-0.807391,0,0,0.807391,94.8387,1016)">
					<path d="M0,-43.086C9.264,-43.086 16.301,-35.676 16.301,-27.071C16.301,-13.44 0,0 0,0C0,0 -16.301,-13.196 -16.301,-27.071C-16.301,-35.676 -9.265,-43.086 0,-43.086Z" style="fill:none;stroke:white;stroke-width:2.85px;"></path>
				</g>
				<g transform="matrix(1.52173,0,0,1.52173,114.194,961.337)">
					<path d="M0,10.868C-3.061,10.868 -5.542,8.435 -5.542,5.434C-5.542,2.433 -3.061,0 0,0C3.061,0 5.542,2.433 5.542,5.434C5.542,8.435 3.061,10.868 0,10.868" style="fill:none;"></path>
				</g>
				<g transform="matrix(0.694593,0,0,0.694593,95.3226,994.4)">
					<path d="M0,10.868C-3.061,10.868 -5.542,8.435 -5.542,5.434C-5.542,2.433 -3.061,0 0,0C3.061,0 5.542,2.433 5.542,5.434C5.542,8.435 3.061,10.868 0,10.868" style="fill:none;"></path>
				</g>
				<g transform="matrix(0.807391,0,0,0.807391,94.8387,989.73)">
					<path d="M0,10.868C-3.061,10.868 -5.542,8.435 -5.542,5.434C-5.542,2.433 -3.061,0 0,0C3.061,0 5.542,2.433 5.542,5.434C5.542,8.435 3.061,10.868 0,10.868" style="fill:none;stroke:white;stroke-width:2.85px;stroke-linejoin:round;stroke-miterlimit:1.41421;"></path>
				</g>
			</g>
		</g>
		<g transform="matrix(1.52173,0,0,1.52173,114.194,961.337)">
			<path d="M0,10.868C-3.061,10.868 -5.542,8.435 -5.542,5.434C-5.542,2.433 -3.061,0 0,0C3.061,0 5.542,2.433 5.542,5.434C5.542,8.435 3.061,10.868 0,10.868" style="fill:rgb(78,212,1);fill-rule:nonzero;"></path>
		</g>
	</g>
</svg>