<svg clip-rule="evenodd" fill-rule="evenodd" stroke-linejoin="round" stroke-miterlimit="1.414" viewBox="0 0 22 42" xmlns="http://www.w3.org/2000/svg"><path d="M8.965 34.167c1.422-.892 2.762-1.552 3.84-2.08 1.727-.847 3.21-1.58 4.314-2.776 5.419-5.866 4.04-14.877 3.98-15.258l-.152-.93-.438.835c-.022.045-2.466 4.65-6.748 7.846a52.45 52.45 0 0 1-1.786 1.235c-1.29.87-2.898 1.948-4.835 3.465C.774 31.498.7 39.762.7 40.111V41l.563-.692c.006-.013 2.19-2.679 7.702-6.141zm-1.35-16.713c2.92-1.831 4.992-3.257 6.337-4.708 4.221-4.57 3.095-10.61 3.041-10.864L16.822 1l-.416.793c-.013.029-1.867 3.549-5.18 6.018-.355.266-.787.559-1.292.898-1.021.689-2.31 1.556-3.805 2.727-4.93 3.863-4.99 10.264-4.99 10.534v.892l.562-.696c.01-.012 1.635-2.024 5.914-4.712z" fill="#4ed401" fill-rule="nonzero"/></svg>