<svg clip-rule="evenodd" fill-rule="evenodd" stroke-linejoin="round" stroke-miterlimit="1.414" viewBox="0 0 16 16" xmlns="http://www.w3.org/2000/svg"><g fill="#4ed401"><path d="M7.952 4.876l.077.003.077.005.076.007.075.008.075.011.074.012.073.014.073.016.072.018.072.019.071.021.07.023.069.024.069.026.067.028.067.029.066.031.065.032.064.034.064.036.062.037.061.038.061.04.059.041.058.042.058.044.056.045.055.047.054.048.052.049.052.05.05.052.049.052.048.054.047.055.045.056.044.058.042.058.041.059.04.061.038.061.037.062.036.064.034.064.032.065.031.066.029.067.028.067.026.069.024.069.023.07.021.071.019.072.018.072.016.073.014.073.012.074.011.075.008.075.007.076.005.077.003.077.001.077-.001.077-.003.077-.005.077-.007.076-.008.075-.011.075-.012.074-.014.073-.016.073-.018.072-.019.072-.021.071-.023.07-.024.069-.026.069-.028.067-.029.067-.031.066-.032.065-.034.064-.036.064-.037.062-.038.061-.04.061-.041.059-.042.058-.044.058-.045.056-.047.055-.048.054-.049.052-.05.052-.052.05-.052.049-.054.048-.055.047-.056.045-.058.044-.058.042-.059.041-.061.04-.061.038-.062.037-.064.036-.064.034-.065.032-.066.031-.067.029-.067.028-.069.026-.069.024-.07.023-.071.021-.072.019-.072.018-.073.016-.073.014-.074.012-.075.011-.075.008-.076.007-.077.005-.077.003-.077.001-.077-.001-.077-.003-.077-.005-.076-.007-.075-.008-.075-.011-.074-.012-.073-.014-.073-.016-.072-.018-.072-.019-.071-.021-.07-.023-.069-.024-.069-.026-.067-.028-.067-.029-.066-.031-.065-.032-.064-.034-.064-.036-.062-.037-.061-.038-.061-.04-.059-.041-.058-.042-.058-.044-.056-.045-.055-.047-.054-.048-.052-.049-.052-.05-.05-.052-.049-.052-.048-.054-.047-.055-.045-.056-.044-.058-.042-.058-.041-.059-.04-.061-.038-.061-.037-.062-.036-.064-.034-.064-.032-.065-.031-.066-.029-.067-.028-.067-.026-.069-.024-.069-.023-.07-.021-.071-.019-.072-.018-.072-.016-.073-.014-.073-.012-.074-.011-.075-.008-.075-.007-.076-.005-.077-.003-.077-.001-.077.001-.077.003-.077.005-.077.007-.076.008-.075.011-.075.012-.074.014-.073.016-.073.018-.072.019-.072.021-.071.023-.07.024-.069.026-.069.028-.067.029-.067.031-.066.032-.065.034-.064.036-.064.037-.062.038-.061.04-.061.041-.059.042-.058.044-.058.045-.056.047-.055.048-.054.049-.052.05-.052.052-.05.052-.049.054-.048.055-.047.056-.045.058-.044.058-.042.059-.041.061-.04.061-.038.062-.037.064-.036.064-.034.065-.032.066-.031.067-.029.067-.028.069-.026.069-.024.07-.023.071-.021.072-.019.072-.018.073-.016.073-.014.074-.012.075-.011.075-.008.076-.007.077-.005.077-.003.077-.001zm-.116 1.5l-.039.001-.039.003-.038.003-.037.004-.038.005-.037.007-.036.007-.036.007-.036.009-.036.01-.035.01-.035.012-.034.012-.034.013-.034.013-.033.015-.033.015-.032.016-.032.017-.032.018-.031.018-.031.02-.03.02-.03.02-.029.022-.029.022-.028.022-.028.024-.027.024-.026.024-.026.026-.026.026-.024.026-.024.027-.024.028-.022.028-.022.029-.022.029-.02.03-.02.03-.02.031-.018.031-.018.032-.017.032-.016.032-.015.033-.015.033-.013.034-.013.034-.012.034-.012.035-.01.035-.01.036-.009.036-.007.036-.007.036-.007.037-.005.038-.004.037-.003.038-.003.039-.001.039-.001.039.001.039.001.039.003.039.003.038.004.037.005.038.007.037.007.036.007.036.009.036.01.036.01.035.012.035.012.034.013.034.013.034.015.033.015.033.016.032.017.032.018.032.018.031.02.031.02.03.02.03.022.029.022.029.022.028.024.028.024.027.024.026.026.026.026.026.026.024.027.024.028.024.028.022.029.022.029.022.03.02.03.02.031.02.031.018.032.018.032.017.032.016.033.015.033.015.034.013.034.013.034.012.035.012.035.01.036.01.036.009.036.007.036.007.037.007.038.005.037.004.038.003.039.003.039.001.039.001.039-.001.039-.001.039-.003.038-.003.037-.004.038-.005.037-.007.036-.007.036-.007.036-.009.036-.01.035-.01.035-.012.034-.012.034-.013.034-.013.033-.015.033-.015.032-.016.032-.017.032-.018.031-.018.031-.02.03-.02.03-.02.029-.022.029-.022.028-.022.028-.024.027-.024.026-.024.026-.026.026-.026.024-.026.024-.027.024-.028.022-.028.022-.029.022-.029.02-.03.02-.03.02-.031.018-.031.018-.032.017-.032.016-.032.015-.033.015-.033.013-.034.013-.034.012-.034.012-.035.01-.035.01-.036.009-.036.007-.036.007-.036.007-.037.005-.038.004-.037.003-.038.003-.039.001-.039.001-.039-.001-.039-.001-.039-.003-.039-.003-.038-.004-.037-.005-.038-.007-.037-.007-.036-.007-.036-.009-.036-.01-.036-.01-.035-.012-.035-.012-.034-.013-.034-.013-.034-.015-.033-.015-.033-.016-.032-.017-.032-.018-.032-.018-.031-.02-.031-.02-.03-.02-.03-.022-.029-.022-.029-.022-.028-.024-.028-.024-.027-.024-.026-.026-.026-.026-.026-.026-.024-.027-.024-.028-.024-.028-.022-.029-.022-.029-.022-.03-.02-.03-.02-.031-.02-.031-.018-.032-.018-.032-.017-.032-.016-.033-.015-.033-.015-.034-.013-.034-.013-.034-.012-.035-.012-.035-.01-.036-.01-.036-.009-.036-.007-.036-.007-.037-.007-.038-.005-.037-.004-.038-.003-.039-.003-.039-.001-.039-.001z"/><path d="M7.943 2.625l.067.002.068.002.067.003.067.004.067.004.066.006.066.006.066.007.066.008.066.009.065.01.065.01.065.011.064.012.065.013.063.013.064.015.063.015.063.015.063.017.063.017.062.018.061.019.062.02.061.02.061.021.06.022.06.022.06.023.06.024.059.025.058.025.059.026.058.027.057.027.057.028.057.029.057.029.056.03.055.031.055.031.055.032.054.033.054.033.054.034.053.034.052.035.053.036.051.036.052.037.05.038.051.038.049.038.05.04.049.039.048.041.048.041.047.041.047.043.047.042.045.043.046.044.045.044.044.045.044.046.043.045.042.047.043.047.041.047.041.048.041.048.039.049.04.05.038.049.038.051.038.05.037.052.036.051.036.053.035.052.034.053.034.054.033.054.033.054.032.055.031.055.031.055.03.056.029.057.029.057.028.057.027.057.027.058.026.059.025.058.025.059.024.06.023.06.022.06.022.06.021.061.02.061.02.062.019.061.018.062.017.063.017.063.015.063.015.063.015.064.013.063.013.065.012.064.011.065.01.065.01.065.009.066.008.066.007.066.006.066.006.066.004.067.004.067.003.067.002.068.002.067v.136l-.002.067-.002.068-.003.067-.004.067-.004.067-.006.066-.006.066-.007.066-.008.066-.009.066-.01.065-.01.065-.011.065-.012.064-.013.065-.013.063-.015.064-.015.063-.015.063-.017.063-.017.063-.018.062-.019.061-.02.062-.02.061-.021.061-.022.06-.022.06-.023.06-.024.06-.025.059-.025.058-.026.059-.027.058-.027.057-.028.057-.029.057-.029.057-.03.056-.031.055-.031.055-.032.055-.033.054-.033.054-.034.054-.034.053-.035.052-.036.053-.036.051-.037.052-.038.05-.038.051-.038.049-.04.05-.039.049-.041.048-.041.048-.041.047-.043.047-.042.047-.043.045-.044.046-.044.045-.045.044-.046.044-.045.043-.047.042-.047.043-.047.041-.048.041-.048.041-.049.039-.05.04-.049.038-.051.038-.05.038-.052.037-.051.036-.053.036-.052.035-.053.034-.054.034-.054.033-.054.033-.055.032-.055.031-.055.031-.056.03-.057.029-.057.029-.057.028-.057.027-.058.027-.059.026-.058.025-.059.025-.06.024-.06.023-.06.022-.06.022-.061.021-.061.02-.062.02-.061.019-.062.018-.063.017-.063.017-.063.015-.063.015-.064.015-.063.013-.065.013-.064.012-.065.011-.065.01-.065.01-.066.009-.066.008-.066.007-.066.006-.066.006-.067.004-.067.004-.067.003-.068.002-.067.002h-.136l-.067-.002-.068-.002-.067-.003-.067-.004-.067-.004-.066-.006-.066-.006-.066-.007-.066-.008-.066-.009-.065-.01-.065-.01-.065-.011-.064-.012-.065-.013-.063-.013-.064-.015-.063-.015-.063-.015-.063-.017-.063-.017-.062-.018-.061-.019-.062-.02-.061-.02-.061-.021-.06-.022-.06-.022-.06-.023-.06-.024-.059-.025-.058-.025-.059-.026-.058-.027-.057-.027-.057-.028-.057-.029-.057-.029-.056-.03-.055-.031-.055-.031-.055-.032-.054-.033-.054-.033-.054-.034-.053-.034-.052-.035-.053-.036-.051-.036-.052-.037-.05-.038-.051-.038-.049-.038-.05-.04-.049-.039-.048-.041-.048-.041-.047-.041-.047-.043-.047-.042-.045-.043-.046-.044-.045-.044-.044-.045-.044-.046-.043-.045-.042-.047-.043-.047-.041-.047-.041-.048-.041-.048-.039-.049-.04-.05-.038-.049-.038-.051-.038-.05-.037-.052-.036-.051-.036-.053-.035-.052-.034-.053-.034-.054-.033-.054-.033-.054-.032-.055-.031-.055-.031-.055-.03-.056-.029-.057-.029-.057-.028-.057-.027-.057-.027-.058-.026-.059-.025-.058-.025-.059-.024-.06-.023-.06-.022-.06-.022-.06-.021-.061-.02-.061-.02-.062-.019-.061-.018-.062-.017-.063-.017-.063-.015-.063-.015-.063-.015-.064-.013-.063-.013-.065-.012-.064-.011-.065-.01-.065-.01-.065-.009-.066-.008-.066-.007-.066-.006-.066-.006-.066-.004-.067-.004-.067-.003-.067-.002-.068-.002-.067v-.136l.002-.067.002-.068.003-.067.004-.067.004-.067.006-.066.006-.066.007-.066.008-.066.009-.066.01-.065.01-.065.011-.065.012-.064.013-.065.013-.063.015-.064.015-.063.015-.063.017-.063.017-.063.018-.062.019-.061.02-.062.02-.061.021-.061.022-.06.022-.06.023-.06.024-.06.025-.059.025-.058.026-.059.027-.058.027-.057.028-.057.029-.057.029-.057.03-.056.031-.055.031-.055.032-.055.033-.054.033-.054.034-.054.034-.053.035-.052.036-.053.036-.051.037-.052.038-.05.038-.051.038-.049.04-.05.039-.049.041-.048.041-.048.041-.047.043-.047.042-.047.043-.045.044-.046.044-.045.045-.044.046-.044.045-.043.047-.042.047-.043.047-.041.048-.041.048-.041.049-.039.05-.04.049-.038.051-.038.05-.038.052-.037.051-.036.053-.036.052-.035.053-.034.054-.034.054-.033.054-.033.055-.032.055-.031.055-.031.056-.03.057-.029.057-.029.057-.028.057-.027.058-.027.059-.026.058-.025.059-.025.06-.024.06-.023.06-.022.06-.022.061-.021.061-.02.062-.02.061-.019.062-.018.063-.017.063-.017.063-.015.063-.015.064-.015.063-.013.065-.013.064-.012.065-.011.065-.01.065-.01.066-.009.066-.008.066-.007.066-.006.066-.006.067-.004.067-.004.067-.003.068-.002.067-.002h.068zm-.126.75l-.058.001-.058.002-.058.003-.057.003-.058.004-.057.005-.057.005-.056.006-.057.007-.056.008-.056.008-.055.009-.056.009-.055.011-.055.01-.055.012-.054.012-.054.013-.054.014-.054.014-.053.015-.054.015-.053.016-.052.017-.052.017-.053.018-.051.019-.052.019-.051.02-.051.02-.05.022-.051.021-.05.022-.049.023-.05.024-.048.024-.049.024-.048.025-.048.026-.048.026-.047.027-.047.027-.047.028-.046.029-.046.029-.045.029-.046.031-.044.03-.045.031-.044.032-.043.032-.043.033-.043.033-.042.034-.042.034-.042.035-.041.035-.041.035-.04.037-.04.036-.039.037-.039.038-.038.038-.038.038-.038.039-.037.039-.036.04-.037.04-.035.041-.035.041-.035.042-.034.042-.034.042-.033.043-.033.043-.032.043-.032.044-.031.045-.03.044-.031.046-.029.045-.029.046-.029.046-.028.047-.027.047-.027.047-.026.048-.026.048-.025.048-.024.049-.024.048-.024.05-.023.049-.022.05-.021.051-.022.05-.02.051-.02.051-.019.052-.019.051-.018.053-.017.052-.017.052-.016.053-.015.054-.015.053-.014.054-.014.054-.013.054-.012.054-.012.055-.01.055-.011.055-.009.056-.009.055-.008.056-.008.056-.007.057-.006.056-.005.057-.005.057-.004.058-.003.057-.003.058-.002.058-.001.058v.116l.001.058.002.058.003.058.003.057.004.058.005.057.005.057.006.056.007.057.008.056.008.056.009.055.009.056.011.055.01.055.012.055.012.054.013.054.014.054.014.054.015.053.015.054.016.053.017.052.017.052.018.053.019.051.019.052.02.051.02.051.022.05.021.051.022.05.023.049.024.05.024.048.024.049.025.048.026.048.026.048.027.047.027.047.028.047.029.046.029.046.029.045.031.046.03.044.031.045.032.044.032.043.033.043.033.043.034.042.034.042.035.042.035.041.035.041.037.04.036.04.037.039.038.039.038.038.038.038.039.038.039.037.04.036.04.037.041.035.041.035.042.035.042.034.042.034.043.033.043.033.043.032.044.032.045.031.044.03.046.031.045.029.046.029.046.029.047.028.047.027.047.027.048.026.048.026.048.025.049.024.048.024.05.024.049.023.05.022.051.021.05.022.051.02.051.02.052.019.051.019.053.018.052.017.052.017.053.016.054.015.053.015.054.014.054.014.054.013.054.012.055.012.055.01.055.011.056.009.055.009.056.008.056.008.057.007.056.006.057.005.057.005.058.004.057.003.058.003.058.002.058.001h.116l.058-.001.058-.002.058-.003.057-.003.058-.004.057-.005.057-.005.056-.006.057-.007.056-.008.056-.008.055-.009.056-.009.055-.011.055-.01.055-.012.054-.012.054-.013.054-.014.054-.014.053-.015.054-.015.053-.016.052-.017.052-.017.053-.018.051-.019.052-.019.051-.02.051-.02.05-.022.051-.021.05-.022.049-.023.05-.024.048-.024.049-.024.048-.025.048-.026.048-.026.047-.027.047-.027.047-.028.046-.029.046-.029.045-.029.046-.031.044-.03.045-.031.044-.032.043-.032.043-.033.043-.033.042-.034.042-.034.042-.035.041-.035.041-.035.04-.037.04-.036.039-.037.039-.038.038-.038.038-.038.038-.039.037-.039.036-.04.037-.04.035-.041.035-.041.035-.042.034-.042.034-.042.033-.043.033-.043.032-.043.032-.044.031-.045.03-.044.031-.046.029-.045.029-.046.029-.046.028-.047.027-.047.027-.047.026-.048.026-.048.025-.048.024-.049.024-.048.024-.05.023-.049.022-.05.021-.051.022-.05.02-.051.02-.051.019-.052.019-.051.018-.053.017-.052.017-.052.016-.053.015-.054.015-.053.014-.054.014-.054.013-.054.012-.054.012-.055.01-.055.011-.055.009-.056.009-.055.008-.056.008-.056.007-.057.006-.056.005-.057.005-.057.004-.058.003-.057.003-.058.002-.058.001-.058v-.116l-.001-.058-.002-.058-.003-.058-.003-.057-.004-.058-.005-.057-.005-.057-.006-.056-.007-.057-.008-.056-.008-.056-.009-.055-.009-.056-.011-.055-.01-.055-.012-.055-.012-.054-.013-.054-.014-.054-.014-.054-.015-.053-.015-.054-.016-.053-.017-.052-.017-.052-.018-.053-.019-.051-.019-.052-.02-.051-.02-.051-.022-.05L12 6.074l-.022-.05-.023-.049-.024-.05-.024-.048-.024-.049-.025-.048-.026-.048-.026-.048-.027-.047-.027-.047-.028-.047-.029-.046-.029-.046-.029-.045-.031-.046-.03-.044-.031-.045-.032-.044-.032-.043-.033-.043-.033-.043-.034-.042-.034-.042-.035-.042-.035-.041-.035-.041-.037-.04-.036-.04-.037-.039-.038-.039-.038-.038-.038-.038-.039-.038-.039-.037-.04-.036-.04-.037-.041-.035-.041-.035-.042-.035-.042-.034-.042-.034-.043-.033-.043-.033-.043-.032-.044-.032-.045-.031-.044-.03-.046-.031-.045-.029-.046-.029-.046-.029-.047-.028-.047-.027-.047-.027-.048-.026-.048-.026-.048-.025-.049-.024-.048-.024-.05-.024-.049-.023-.05-.022-.051-.021-.05-.022-.051-.02-.051-.02-.052-.019-.051-.019-.053-.018-.052-.017-.052-.017-.053-.016-.054-.015-.053-.015-.054-.014-.054-.014-.054-.013-.054-.012-.055-.012-.055-.01-.055-.011-.056-.009-.055-.009-.056-.008-.056-.008-.057-.007-.056-.006-.057-.005-.057-.005-.058-.004-.057-.003-.058-.003-.058-.002-.058-.001h-.058z"/><path d="M7.972.376l.096.001.097.004.096.004.095.005.096.007.095.008.094.009.095.01.094.011.093.013.094.013.092.015.093.016.092.017.092.018.091.02.091.02.09.022.09.022.09.024.089.025.089.026.088.026.088.028.087.029.087.03.087.031.086.032.085.034.085.034.084.035.084.036.083.037.083.038.082.039.082.04.081.041.081.042.08.043.079.044.079.044.078.046.078.046.077.048.076.048.076.049.075.051.075.051.073.051.074.053.072.054.072.054.071.056.071.056.07.057.069.057.068.059.068.059.067.06.066.061.065.062.065.062.064.064.064.064.062.065.062.065.061.066.06.067.059.068.059.068.057.069.057.07.056.071.056.071.054.072.054.072.053.074.051.073.051.075.051.075.049.076.048.076.048.077.046.078.046.078.044.079.044.079.043.08.042.081.041.081.04.082.039.082.038.083.037.083.036.084.035.084.034.085.034.085.032.086.031.087.03.087.029.087.028.088.026.088.026.089.025.089.024.09.022.09.022.09.02.091.02.091.018.092.017.092.016.093.015.092.013.094.013.093.011.094.01.095.009.094.008.095.007.096.005.095.004.096.004.097.001.096.001.097-.001.097-.001.096-.004.097-.004.096-.005.095-.007.096-.008.095-.009.094-.01.095-.011.094-.013.093-.013.094-.015.092-.016.093-.017.092-.018.092-.02.091-.02.091-.022.09-.022.09-.024.09-.025.089-.026.089-.026.088-.028.088-.029.087-.03.087-.031.087-.032.086-.034.085-.034.085-.035.084-.036.084-.037.083-.038.083-.039.082-.04.082-.041.081-.042.081-.043.08-.044.079-.044.079-.046.078-.046.078-.048.077-.048.076-.049.076-.051.075-.051.075-.051.073-.053.074-.054.072-.054.072-.056.071-.056.071-.057.07-.057.069-.059.068-.059.068-.06.067-.061.066-.062.065-.062.065-.064.064-.064.064-.065.062-.065.062-.066.061-.067.06-.068.059-.068.059-.069.057-.07.057-.071.056-.071.056-.072.054-.072.054-.074.053-.073.051-.075.051-.075.051-.076.049-.076.048-.077.048-.078.046-.078.046-.079.044-.079.044-.08.043-.081.042-.081.041-.082.04-.082.039-.083.038-.083.037-.084.036-.084.035-.085.034-.085.034-.086.032-.087.031-.087.03-.087.029-.088.028-.088.026-.089.026-.089.025-.09.024-.09.022-.09.022-.091.02-.091.02-.092.018-.092.017-.093.016-.092.015-.094.013-.093.013-.094.011-.095.01-.094.009-.095.008-.096.007-.095.005-.096.004-.097.004-.096.001-.097.001-.097-.001-.096-.001-.097-.004-.096-.004-.095-.005-.096-.007-.095-.008-.094-.009-.095-.01-.094-.011-.093-.013-.094-.013-.092-.015-.093-.016-.092-.017-.092-.018-.091-.02-.091-.02-.09-.022-.09-.022-.09-.024-.089-.025-.089-.026-.088-.026-.088-.028-.087-.029-.087-.03-.087-.031-.086-.032-.085-.034-.085-.034-.084-.035-.084-.036-.083-.037-.083-.038-.082-.039-.082-.04-.081-.041-.081-.042-.08-.043-.079-.044-.079-.044-.078-.046-.078-.046-.077-.048-.076-.048-.076-.049-.075-.051-.075-.051-.073-.051-.074-.053-.072-.054-.072-.054-.071-.056-.071-.056-.07-.057-.069-.057-.068-.059-.068-.059-.067-.06-.066-.061-.065-.062-.065-.062-.064-.064-.064-.064-.062-.065-.062-.065-.061-.066-.06-.067-.059-.068-.059-.068-.057-.069-.057-.07-.056-.071-.056-.071-.054-.072-.054-.072-.053-.074-.051-.073-.051-.075-.051-.075-.049-.076-.048-.076-.048-.077-.046-.078-.046-.078-.044-.079-.044-.079-.043-.08-.042-.081-.041-.081-.04-.082-.039-.082-.038-.083-.037-.083-.036-.084-.035-.084-.034-.085-.034-.085-.032-.086-.031-.087-.03-.087-.029-.087-.028-.088-.026-.088-.026-.089-.025-.089-.024-.09-.022-.09-.022-.09-.02-.091-.02-.091-.018-.092-.017-.092-.016-.093-.015-.092-.013-.094-.013-.093-.011-.094-.01-.095-.009-.094-.008-.095-.007-.096-.005-.095-.004-.096-.004-.097-.001-.096-.001-.097.001-.097.001-.096.004-.097.004-.096.005-.095.007-.096.008-.095.009-.094.01-.095.011-.094.013-.093.013-.094.015-.092.016-.093.017-.092.018-.092.02-.091.02-.091.022-.09.022-.09.024-.09.025-.089.026-.089.026-.088.028-.088.029-.087.03-.087.031-.087.032-.086.034-.085.034-.085.035-.084.036-.084.037-.083.038-.083.039-.082.04-.082.041-.081.042-.081.043-.08.044-.079.044-.079.046-.078.046-.078.048-.077.048-.076.049-.076.051-.075.051-.075.051-.073.053-.074.054-.072.054-.072.056-.071.056-.071.057-.07.057-.069.059-.068.059-.068.06-.067.061-.066.062-.065.062-.065.064-.064.064-.064.065-.062.065-.062.066-.061.067-.06.068-.059.068-.059.069-.057.07-.057.071-.056.071-.056.072-.054.072-.054.074-.053.073-.051.075-.051.075-.051.076-.049.076-.048.077-.048.078-.046.078-.046.079-.044.079-.044.08-.043.081-.042.081-.041.082-.04.082-.039.083-.038.083-.037.084-.036.084-.035.085-.034.085-.034.086-.032.087-.031.087-.03.087-.029.088-.028.088-.026.089-.026.089-.025.09-.024.09-.022.09-.022.091-.02.091-.02.092-.018.092-.017.093-.016.092-.015.094-.013.093-.013.094-.011.095-.01.094-.009.095-.008.096-.007.095-.005.096-.004.097-.004.096-.001.097-.001.097.001zm-.184.75l-.087.001-.087.003-.087.004-.086.005-.086.006-.085.007-.086.008-.084.009-.085.01-.084.012-.084.012-.084.013-.083.015-.083.015-.082.016-.082.018-.082.018-.081.019-.081.021-.081.021-.08.022-.08.023-.079.025-.079.025-.079.026-.078.027-.078.028-.077.028-.077.03-.076.031-.076.031-.075.033-.075.033-.075.035-.074.035-.073.036-.073.036-.073.038-.072.039-.071.039-.071.04-.07.041-.07.042-.07.043-.068.044-.068.044-.068.045-.067.046-.067.047-.066.047-.065.048-.065.049-.064.05-.063.051-.063.051-.062.052-.062.053-.061.053-.06.054-.06.055-.059.056-.058.056-.058.057-.057.058-.056.058-.056.059-.055.06-.054.06-.053.061-.053.062-.052.062-.051.063-.051.063-.05.064-.049.065-.048.065-.047.066-.047.067-.046.067-.045.068-.044.068-.044.068-.043.07-.042.07-.041.07-.04.071-.039.071-.039.072-.038.073-.036.073-.036.073-.035.074-.035.075-.033.075-.033.075-.031.076-.031.076-.03.077-.028.077-.028.078-.027.078-.026.079-.025.079-.025.079-.023.08-.022.08-.021.081-.021.081-.019.081-.018.082-.018.082-.016.082-.015.083-.015.083-.013.084-.012.084-.012.084-.01.085-.009.084-.008.086-.007.085-.006.086-.005.086-.004.087-.003.087-.001.087-.001.087.001.087.001.087.003.087.004.087.005.086.006.086.007.085.008.086.009.084.01.085.012.084.012.084.013.084.015.083.015.083.016.082.018.082.018.082.019.081.021.081.021.081.022.08.023.08.025.079.025.079.026.079.027.078.028.078.028.077.03.077.031.076.031.076.033.075.033.075.035.075.035.074.036.073.036.073.038.073.039.072.039.071.04.071.041.07.042.07.043.07.044.068.044.068.045.068.046.067.047.067.047.066.048.065.049.065.05.064.051.063.051.063.052.062.053.062.053.061.054.06.055.06.056.059.056.058.057.058.058.057.058.056.059.056.06.055.06.054.061.053.062.053.062.052.063.051.063.051.064.05.065.049.065.048.066.047.067.047.067.046.068.045.068.044.068.044.07.043.07.042.07.041.071.04.071.039.072.039.073.038.073.036.073.036.074.035.075.035.075.033.075.033.076.031.076.031.077.03.077.028.078.028.078.027.079.026.079.025.079.025.08.023.08.022.081.021.081.021.081.019.082.018.082.018.082.016.083.015.083.015.084.013.084.012.084.012.085.01.084.009.086.008.085.007.086.006.086.005.087.004.087.003.087.001.087.001.087-.001.087-.001.087-.003.087-.004.086-.005.086-.006.085-.007.086-.008.084-.009.085-.01.084-.012.084-.012.084-.013.083-.015.083-.015.082-.016.082-.018.082-.018.081-.019.081-.021.081-.021.08-.022.08-.023.079-.025.079-.025.079-.026.078-.027.078-.028.077-.028.077-.03.076-.031.076-.031.075-.033.075-.033.075-.035.074-.035.073-.036.073-.036.073-.038.072-.039.071-.039.071-.04.07-.041.07-.042.07-.043.068-.044.068-.044.068-.045.067-.046.067-.047.066-.047.065-.048.065-.049.064-.05.063-.051.063-.051.062-.052.062-.053.061-.053.06-.054.06-.055.059-.056.058-.056.058-.057.057-.058.056-.058.056-.059.055-.06.054-.06.053-.061.053-.062.052-.062.051-.063.051-.063.05-.064.049-.065.048-.065.047-.066.047-.067.046-.067.045-.068.044-.068.044-.068.043-.07.042-.07.041-.07.04-.071.039-.071.039-.072.038-.073.036-.073.036-.073.035-.074.035-.075.033-.075.033-.075.031-.076.031-.076.03-.077.028-.077.028-.078.027-.078.026-.079.025-.079.025-.079.023-.08.022-.08.021-.081.021-.081.019-.081.018-.082.018-.082.016-.082.015-.083.015-.083.013-.084.012-.084.012-.084.01-.085.009-.084.008-.086.007-.085.006-.086.005-.086.004-.087.003-.087.001-.087.001-.087-.001-.087-.001-.087-.003-.087-.004-.087-.005-.086-.006-.086-.007-.085-.008-.086-.009-.084-.01-.085-.012-.084-.012-.084-.013-.084-.015-.083-.015-.083-.016-.082-.018-.082-.018-.082-.019-.081-.021-.081-.021-.081-.022-.08-.023-.08-.025-.079-.025-.079-.026-.079-.027-.078-.028-.078-.028-.077-.03-.077-.031-.076-.031-.076-.033-.075-.033-.075-.035-.075-.035-.074-.036-.073-.036-.073-.038-.073-.039-.072-.039-.071-.04-.071-.041-.07-.042-.07-.043-.07-.044-.068-.044-.068-.045-.068-.046-.067-.047-.067-.047-.066-.048-.065-.049-.065-.05-.064-.051-.063-.051-.063-.052-.062-.053-.062-.053-.061-.054-.06-.055-.06-.056-.059-.056-.058-.057-.058-.058-.057-.058-.056-.059-.056-.06-.055-.06-.054-.061-.053-.062-.053-.062-.052-.063-.051-.063-.051-.064-.05-.065-.049-.065-.048-.066-.047-.067-.047-.067-.046-.068-.045-.068-.044-.068-.044-.07-.043-.07-.042-.07-.041-.071-.04-.071-.039-.072-.039-.073-.038-.073-.036-.073-.036-.074-.035-.075-.035-.075-.033-.075-.033-.076-.031-.076-.031-.077-.03-.077-.028-.078-.028-.078-.027-.079-.026-.079-.025-.079-.025-.08-.023-.08-.022-.081-.021-.081-.021-.081-.019-.082-.018-.082-.018-.082-.016-.083-.015-.083-.015-.084-.013-.084-.012-.084-.012-.085-.01-.084-.009-.086-.008-.085-.007-.086-.006-.086-.005-.087-.004-.087-.003-.087-.001-.087-.001z" fill-opacity=".502"/></g></svg>