<svg clip-rule="evenodd" fill-rule="evenodd" stroke-linejoin="round" stroke-miterlimit="1.414" viewBox="0 0 11 16" xmlns="http://www.w3.org/2000/svg"><path d="M1.477 1.477C2.461.492 3.656 0 5.062 0c1.407 0 2.602.492 3.586 1.477.985.984 1.477 2.179 1.477 3.585 0 1.172-.422 2.649-1.266 4.43-.843 1.781-1.687 3.27-2.531 4.465L5.063 15.75a126.78 126.78 0 0 1-1.407-1.986c-.562-.809-1.312-2.168-2.25-4.078C.469 7.775 0 6.234 0 5.062c0-1.406.492-2.601 1.477-3.585zM3.885 6.24c.316.317.709.475 1.178.475.468 0 .861-.158 1.177-.475.317-.316.475-.709.475-1.178 0-.468-.158-.861-.475-1.177a1.596 1.596 0 0 0-1.177-.475c-.469 0-.862.158-1.178.475a1.596 1.596 0 0 0-.475 1.177c0 .469.158.862.475 1.178z" fill="#4ed401" fill-rule="nonzero"/></svg>