<svg clip-rule="evenodd" fill-rule="evenodd" stroke-linejoin="round" stroke-miterlimit="1.414" viewBox="0 0 549 367" xmlns="http://www.w3.org/2000/svg"><path d="M547.531 145.161l-1.411-1.68-1.185-1.869-.648-1.378-.192-1.49.575-1.525.533-.496 1.185-.689.457-.65.152-.954-.457-.495-2.978-.802h-.61l-.727.269-1.793 1.83-.765.462-.914.34-.92.191-.839-.039-.611-.265-1.566-1.529-1.221-.57-1.068-.307-.919-.65-.76-1.601-.46-2.025-.343-1.068-.382-.498-1.793-.189-.574-.269-1.108-.723-1.145.228-1.185.571-1.183.269-1.148-.269-.877-.571-.684-.953-1.682-4.393-.8-.687-1.185.419-.534.612-.957 1.452-.571.493-.497.154-2.863.193-.802-.802-.764-1.149-1.03-.953-3.17-.917-1.832-1.336-.192-.192-.151-.417-.077-.765-.268-.916v-.113l-.075.113-.727.266-.269.19-.265.115-1.49-.267-2.215.424-1.108-.424-.726-.496-.534-.231-1.335-.151-.609-.265-.345-.537-.915-2.71-.421-.537-.574-.075-.84.152-1.945-.152-.5.113-.303 1.416.228 2.175-.153 2.062-1.451.991-.303-.075-.537-.379-.345-.08-.379.117-2.023 1.296-.156-.265v-.727l-.457-.84-.038-.075-.992-1.72-.915-1.182-1.034-.916-1.183-.765-2.403-1.109-1.071-.762-2.902-4.505-1.068-1.069-.23-.308-.038-.495.076-.496.307-1.142-.076-1.991-.958-1.028-2.67-1.298-.496-1.26-.42-1.567-.459-1.222-.612-.344-3.053.423-.878.379-1.798 1.832-.916.687-4.389 1.302-2.179-.348-2.021.154-1.985.729-5.041 2.977-.381.381-.269.42-.496 1.03-.269.382-.571.383-.689.075-.685-.114-.65-.265-.458-.385-.077-.418.077-.46-.037-.991.075-.191-.075-.113-.46-.31-.268-.114-.954-.226-.84-.613-.687-.152-.61-.383-.305-.115h-.383l-.228.115-.611.611-.687.461-.726.302-.725.039-.689-.341-3.016-4.851-.879-.42-.229-.878-.841-.458-5.267-.423-2.864.348-.533.19-.42.343-.613.84-.344.345-.265.113h-.575l-.265.115-.496.612-.345.609-.42.496-.726.23-.651-.038-.609-.192-.613-.303-.572-.424-.646-.761-.192-.725-.039-.84-.23-1.109-.417-.802-.538-.456-.646-.23-.651-.117-1.029-.416-.651-1.188-1.448-5.763-.04-.61.459-.574 2.364-1.067-.722-.916-.039-1.033.114-1.184-.268-1.336-.266-.457-.343-.307-.765-.457-.42-.421-.037-.495.075-.574-.075-.689-.269-.61-.609-.84-.231-.609-.038-.727.076-.612-.038-.572-.382-.648-.383-.23-.721-.154-.269-.303-.076-.458v-1.298l-.117-.537 1.68-.342.423-.422.265-.84-.265-.531-.537-.309-.611-.19-1.031-.076-2.061.496-1.03-.075-.878-.878-.614-1.605-.722-4.431-.231-.684-.382-.496-.571-.23-.65.116-.611.266-.574.113-.571-.379-.573-.271-.457.04-1.415.879-2.481 1.07-2.101.493-2.214-.152-.533-.189-.42-.42-.305-.726-.153-.761-.194-.65-.418-.462-.917-.114-1.948.345-.992-.383-2.175-.764-1.147-.189-1.069.264-1.144.958-.537.23-.722-.154-2.18-.955 1.76-1.221 1.221-1.299.761-1.642-.265-1.642-.613.345h-.496l-.534-.114-.494-.231-.46-.305-.612-.573-.305-.419-.115-.42.156-.268.684-.152.189-.421.08-.495-.08-.423-.112-.417-.039-.499.077-.458.268-.877.074-.496-.074-1.067-.231-.84-.42-.689-1.26-1.453-.227-.378-.117-.462-.151-.992-.115-.343-.42-.269-1.07-.303-.344-.499.305-1.143 1.187-.688 5.153-1.222 1.796.038.572-.153 1.145-1.373-.037-2.024-.84-1.949-1.185-1.183-.611-.42-.993-1.143-.533-.386h-.344l-.571.269-.346-.152v-.117l-.116-.685-.075-.23-.19-.19-.42-.266-.193-.154-1.143-1.488-.612-.46h-1.529v-.418l.232-.725-.115-.84-.65-1.033-.382-.841-.19-.953-.076-1.604-.117-.84v-.269l.537-1.104v-.576l-.075-.458-.194-.457-.305-.571-.497-.803-.495-.572-1.948-1.339-.42-.533-.764-1.68-.572-.802-1.261-.802-.608-.571-.462-.879-.227-.688-.345-.458-.763-.269-1.374-.037-1.373.269-2.676 1.258-2.1 2.101-.646.076-.537-.802.191-1.872-.571-.84-.46.271-.42.379-.42.307-.534.037-.459-.231-.84-.609-.534-.114h-1.947l-2.978-.571-.42.075-.497.341-.763.996-.382.381-.572.228-.306.189-.344.688-.228.269-.268.076-.381-.23-.269-.038-.534.268-3.13 2.787-.537.305-.533-.077-.917-.725-.494-.266h-.878l-1.797.458h-.916l-5.994-3.168-1.452.456-2.634-.992-1.223.267-.42 1.681.152.534.575 1.03.113.422-.192.572-.34.307-.382.226-.306.307-.269.878-.379 2.977-.881 1.911-1.336 1.07-4.199 1.983-.573.038-1.834-.495-1.106.116-1.604.799-.495.117-.575-.347-.114-.761v-.919l-.151-.802-.689-.685-.991-.193-1.874.155-3.473.192-5.308-1.032h-2.788l-2.403.995-.651.76-.457.995-.497.841-.688.302-.727-.266-1.411-1.183-.727-.42-1.184-.152-4.162.266-.761.227-.458.537.19.84-.152.228-.075.23-.08.231-.113.264.879.115.343.687-.269.651-.802.038-.189-.269-.191-.075-.191.075-.268.194-.229.303-.073.306v.382l-.269.42-.346.382-.381.303-.42.272-.84.341v.152l.076.305.154.193v.341l-.42.575-.268.303-.265.117-.919-.079-.228.079-.117.307v.454l-.075.423-.609.341-.194.31-.151.341-.152.152-.075.154-.65.878-.19.344-.117.151v.19l.23.462.038.764-.533.571-.688.458-.382.419.612.307.227.038v.379l-.344.386-.113.571-.039.609-.192.462-.341.151-.957.037-.382.115.192.65-.345 1.03.194.688-.231.19-.23.384-.151.114.075.189.114.459-.379.155-.881.802v.341l.574.499.266.151v.303l-.228.077-.113.078-.117.114-.151.117v.303l.343.46.992.303.496.266-.228.538-.155.226-.265.23.382.269.304.303.116.386-.192.379.155.574.227.379.268.192.307.156v.341l-.42-.077-.345.115-.23.344-.075.609.113.574.23.115h.307l.379.267.154.307.307 1.373.152.269.23.304.038.23-.382.152.189 1.373-.839.878-.916.688-.077.726-.533.955-.079.113-.038 1.146-.152.307-.343.076-.228-.458-.344-.382-.383-.266-.419-.117-.42.042-.458-.155-.689-1.033-.458-.417-.42-.117h-.915l-.458-.152-.423-.38-.916-1.185-.228-.497.076-.038.269-.99.038-.386v-.492l-.038-.386-.079-.303-.304-.23-.382-.382-1.529-.765-.42-.454-1.145-1.567-.84-.651-.878-.226-4.237.113-.689.228-1.832.953h-.381l-.497-.341-.305-.038-.383.266-.496.915-.306.348-.534.151-2.75-.461-.379-.53-.269-.727-.495-.877-.537-.386-.648-.076-.689.114-.608.231-.613.571-.306.537-.458.534-.723.268-.802.077-.421.226-.306.574-.42 1.183-.458.801h-.612l-1.337-.533-.684.23-1.184 1.029-.614.23-.684-.382-.382-.877-.269-1.071-.345-.954-.609-.725-.495-.383-.193-.533.269-1.26-.117-1.261-.341-.801-1.034-1.525-.646-1.759-.382-.61-.727-.461-1.222-.304-.609.038-.613.228-.609.612-.727 1.529-.572.648-.801.305h-1.873l-.878.19-.953.537-.954.764-.84 1.029-.613 1.337-.075.802.075 1.835-.152.722-.537.609-.303-.492-.23-.915-.227-.612-.381-.039-.422.265-.42.194-.499-.232-.303-.495-.192-.686-.458-2.713-.075-.994-.269-.647-.803-.306-2.708-.573h-.84l-.802.269-1.529 1.03-.802.765-.381.226-.38-.151-.193-.382-.344-1.337-.189-.495-.382-.42-.879-.537-.381-.378-.269-.537-.038-.458v-.42l-.113-.495-.459-.497-.612-.038-.686.341-.649.574-.61.917-.995 1.869-.723.651-.575.23h-2.977l-.572-.154-.575-.304-1.832-1.986-.65-.345-.685.115-.575.537-.379.801-.193.992v.613l.039.567.038.537-.153.652-.154.302-1.411 1.91-.307.307-.495.076-.42-.189-.497-.386-.42-.454-.192-.386.995-2.444.227-1.219-.382-1.032-.496-.269-1.717-.038-3.284-1.335-1.068-.038-.575.306-.839.915-.648.344-.613.038-1.794-.305-1.222.382-.647.079-.419-.386.188-.84.458-1.067.077-.84-.878-.228-.727.077-.61-.077-.42-.422-.23-.953v-1.299l.08-1.032-.194-.765-.801-.454-1.261-.269-2.671-.117-3.057 1.07-2.022-.343-5.765-2.559-6.681-.226-.421-.232-.382-.533-.075-.461.075-.455v-.344l-.344-.192-7.064-.303-.916-.424-1.949-1.755-.915-.19-2.1.075-6.493-1.222-2.558.497-10.079-.153-5.116-1.373-1.374.038-1.376.458-2.71 1.452-8.516 1.371-.648-.038-1.872-.454-7.559.609-.648.231-.652.684-1.105 1.642-.458.957-.725 3.205-.84 1.222-3.436 2.369-4.545 4.087-1.222.189-.877-.801-.841-1.03-1.222-.5-.764-.075-2.138-.651h-.687l-2.978.764-.382.193-.307.344-.382.648-.038.382.193.381.839 2.328.077.461-.152.765-.268.15-.269-.226.038.303.192.688.802.303.535.192.419.307-.457.992.038.306 1.222 1.832.23.571-.345.154-.23.345-.038.495.193.648-.575.231-.534.571-.42.727-.151.65.19 1.029.458.268h.57l.5.345 1.679 3.701.686.841 1.529.994 1.448 1.449.345.574-.495.266-.115.461.459.955.801 1.222.269.646.341 2.025v.306l-.113.381.23.19.382.155.379.265.344.499.076.379.037.423.156.61.458.761 2.062 1.91 2.519 1.412.383.613-.383.839-.916.19h-.995l-.608.268-.802-.458-.84.114-.689.538-.382.84.037.915.462.612.723.341.84.115v.305l-.383.84.42.727.841.495.802.19-.189 1.108.226.994.765 1.87-.686 1.223.304 2.252.193.649.151.153-.038.113-.382.537-.571.61-1.949 1.032-.076.571.038.919-.038.61-.155.495-.684 1.567-1.604.689-5.498.075-1.033.342-.534.267-.42.422-.344.687-.42 1.335-.42.61-2.407 2.596-.878.726-1.642 1.262-1.373 1.068-6.951 7.522-.915 1.416-1.106.877-1.221 1.332-3.285 4.852-1.26 1.3-.154.379-.228.953-.155.348-.265.265-.537.19-.265.193-.306.345-1.87 3.397-.499.534-.34.154-.65.152-.345.303-.228.422-.537 1.491-2.289 3.089-.763 1.797.571 1.679.192.686.19 1.989.116.531.076.271.382.647.648.687.192.346.115.723.418 4.279-.113.686-.495 1.41-.42 1.642-.499.992-.151.575.188.227.155-.114.42-.495.458.344h-.038l-.113.038.991.689.879 1.18.571.423 1.376.765.383.455v.385l-.268.916-.039.609.114.42.496.84.117.227-.345.728-.612-.266-.686-.614-.536-.264-.341-.115-.575-.802-.303-.305-.345-.041-.687.23-1.109-.076-.648.076-.65-.076-.761-.496-1.146-1.259-.613-.192-.648.611-.229.765-.228 1.067-.155 1.071v.761l-.457.422-1.185.19-.534.42-.647 1.949-.382.802-.038.227v.613l-.079.264-.265.424-.727.61-.305.42-.19.571v.344l.037.382.076 1.564-.076.309-.23.531-.265.385-.269.226-.226.308-.117.609.038.991-.19.957-.383.84-.495.647-.383.232-.801.268-.383.265-.226.307-.307.725-.194.345-1.983 1.604-.459.723-.077.92.344 1.83-.113.726-.344.728-.038 3.28.725.117h.077l.305-.348.993-.379 1.032.153 1.068.536-.458 1.374v.723l.839-.038.231.038.227.382v.458l-.075.536.037.648.345.915 1.486 2.294.194.189.228.037.23-.076.23-.189.114-.037h.227l.613.226.495.117.458-.041.573-.302h.116l.114.037.113.039 2.255 2.977.381.916.42 1.452.535 1.067.151.193h.077l.419-.23h2.179l.571-.188.496-.345.534-.156.499.307.113.231 1.109.608.916.841.42.495.303.614.23.84-.113.457-.193.42-.037.727-.535.646.269.537 1.104.917.614-.193.533-.383.231-.609-.306-.954.265-.537.458-.038.536.269.458.345.496.302.497.156.495-.077 1.301-1.032.42-.765.685-2.099.613-.916.608-.307.689.117 2.1.723.535.383 1.258 1.491 1.454 1.222.685.802.23.075.228.038h.23l.228-.075h.154l1.987.99.608-.037.232-.151.19-.231.151-.266.154-.305.304-.269.344-.114 1.146-.231.572.194 1.948.226 1.26.422.726.077 2.101-.117.496.269 1.566 1.449.189.689h.651l3.053-1.26.953.038.499.382 1.525.42.614.269 1.106 1.067.535.112.039-.037 1.793.689.65.037 2.139-1.105 1.486-.041 1.185-1.029.688-.382h.572l1.717.42 1.719-.038.575.153 1.41.838.765.612.458.611.192.726.039.613.151.572.533.608 1.034.651 2.444.954.42.382.382.533 1.029 1.834.726 1.107.572.381 3.59-.608 1.908-.841 1.264-1.222 2.938-4.888 1.299-.916 14.927-1.604 1.986-.803 1.605-.188.915-.42.496-.115 1.452.152 1.945-.571 2.94-.04 1.453-.648.306-.46.685-1.565.383-.497.802-.687.382-.42.458-.955.495-1.41.307-1.453-.038-1.029.23-1.49.228.113.571.038.574-.151.993-.497.495-.155 1.454-.076.495-.112 3.817-.842.916-.456.041-.384.115-.571.343-.536.992-.648.151-.612.193-.383.609.232.42.456.344.572.383.5.571.265.613-.037.345-.308.113-.608v-.88l-.152-.877-.192-.537-.038-.42.306-.457h.189l.497.192h.23l.269-.268.075-.34.114-.269.344-.117.991.461.996.839 1.066.648 1.147-.189.305-.308.228.04.193.113.341-.038.383.076.154-.114-.037-.228-.117-.269-.038-.191v-.303l-.077-.383.038-.345.345-.112.306.112.648.383 3.247 1.222.99.037 1.147-.611 1.835-2.29 1.105-.571.574.151.878.802.42.152.496-.265 1.832-1.567.688-.953h1.259l.345-.076.802-.538.648.077.075 1.184.613.306 3.779-.038 1.03.496 1.949 1.45.457.385.954 1.449.231.228.688 1.032 1.222.497 2.71.342.612.308.496.572.152.801-.61 1.794.42.343.685.04.461-.115.954-.801.495-.077.231.765.113.878.307.532.496.153.727-.153.647-.38.496-.42.495-.345 1.415-.152.534.075.306.382.076.88-.231.914-.341.421-.42.267-.461.573-.189.65.075.647.345.383.65-.114.458-.534.265-.688.382-.534.688-.114.459.342.306.612-.038.686-.496.574.878 1.794.379.383.613.42.306-.04.114-.42v-.763l.227-.954.574-1.641.686-.307.995.038 2.788 1.146 2.1.038 1.105.193.84.572.192.345.077.342.038.303.075.308.496 1.182.231 1.223.038.269.188.303.499.458.803 1.414.992 1.068 1.07.84.915.382 1.106-.228 1.339-1.759.954-.457h.533l.42.154.382.345.345.572.228.688.268 1.562.229.652.42.345 1.183.38.305.228-.113.613-.458.647-.576.612-.378.495-.268.803v.496l.305.306 1.03.382.383.343.113.497-.343.572-.917 1.185-.151 1.41.037 1.605-.306 1.68-.801 1.375-.762 1.031-.383 1.185.383 1.793.265.571.458 1.337.269.461.533.418.231-.229.302-.496.499-.231.459.231.533.953.916.611.231.461.151.533.269.457.458.269.457.114.458.19.383.575.152.685v.649l.075.652.42.684.42.382.461.232.496.037.495-.154.535-.497.42-.571.154-.689.303-.688.612-.077.609.04.576.229.496.459.419.764.268 1.03.039 1.032-.344.761-.765.382-.113.957.303 2.327-.19 1.108-.42.535-.65.192-.84.075-.076.115v.305l.076.152.919 1.756.266.269.343-.269.269-.571.341-.497.574-.037.42.265.345.461.228.61.037.688-.227.61-.383.419-.344.496-.226 1.642-.156.688-.038.572.269.496.189.041.764-.079.269.155.458.534.265.23.499.19.991.075.458.193.495.495.69 1.147.572.42.956.152.878-.077.878.115.878.727.152.305.23.803.152.227.267.038.266-.19.307-.117.343.194.077.305v.953l.037.42.117.307.341.647.155.345.038.802-.268 2.75-.115.495-.151.42-.117.42v.573l.117.457.379.916.079.42-.344.958-.688.113-.535.038.115.99.42.537 1.335.572.038.114.154.42.114.079.193-.079.379-.226h.192l.231.188.189.269.383.765-.231.38 1.377 1.105.496.614.306-.269.458-.076.495.076.42.269-.725 1.336-.802.764-1.337.23-3.59-.23-.495.113-.534.307-1.147.991-.609.079-.612-.688-.077-.306v-.84l-.038-.42-.154-.382-.648-.991-1.604-1.53-.383-.685v1.219l-.343.651-.61.23h-.84l-.19.266.153 1.071-.232.722-.42.423-.495.19-.533-.039-.458-.268-.42-.572-.42-.953-.458-.382-.423-.155-.953-.188-.459-.194-.189-.303-.038-.345.038-.343.189-.345.154-.303.077-.306-.038-.306-.154-.269-.727-.113-.648.343-.571.651-1.339 2.021h-.382l-.534-.802-.726-1.525-.42-.155-.534.92-.113.532.152.879v.383l-.228.571-.154.077-.228-.077-.382.113-1.109 1.222-.686.42-.537-.42v-.458l.194-.42.264-.42.194-.42.075-.533-.037-3.704-.193-.955-.497-.611h-.646l-2.674 1.528-1.642.609-2.252 1.528-.61.953-.193 1.223.23 1.604.535 2.101.038.689-.19.8-.231.648v.614l.534.685 1.798 1.678.151.958-.345 1.029-.688 1.184-1.029 1.185-.232.688.079 1.067.535 1.912-.076.877-.764.345-5.309 1.373-.533.344-.345.648v.726l.42 1.529.114.802-.038.877-.189.571-.382.382-.572.345-.878.19-.23.192v.265l.076.383.037.458-.113.42-.802.461-2.025.188-.495.802.23.803-.192.345-.878.265-.535.343-.344.345-.688 1.067-.227.499.265.303.458.268.382.42.192.614.038.608.114.61.42.575-.802.382-.188.151-.194.384v.113l.079.075.19 1.453-.152.494-.65.308-1.949-.076-2.29-.612-2.175-.152-1.604 1.221-.268.496-.228.535-.076.305.417.497.765-.077.877.497.575.802-.155.84.881 2.33.61 1.067.688.458.496.154 1.067.611 2.712.688 2.521 1.336 4.048.915 1.143-.152.957-.037.378-.155.345-.382-.84-.383-.228-.188-.154-.307-.076-.382.076-.345.877-.42-.036-.646.036-.614.804-.188.458.151.8.574.689.115.383.268.495.534.612.343.686-.268.154-.306.077-.84.189-.383.231-.151.265-.077.688-.037.42-.23 1.567-1.298 1.297-.382.534-.228.42-.457.231-.117.725-.038.152-.113.114-.307.269-.303.458-.382.651-.345.495-.037.496.114h.647l.268-.114.269-.192.226-.228.194-.231.264-.189.345.075.344.19.307.079 2.328.228 4.241 1.527 1.411 1.261.344.189.685.651.499 1.487.151 1.68-.382 1.222.19.269.041.306-.079.302-.152.308.458.112.534-.151.499-.269.571-.57.038-.038-.038-.077-.038-.343.076-.459.345-1.032.037-.341.231-.612.114-.383.038-.382-.076-1.832-.117-.915-.227-.803-.421-.457.61.037.306-.533-.038-.84-.23-.689-.458-.533-.227.342-.155.726-.19.65-.151-.727-.193-.151-.227.038-.231-.079v.154l-.151.152-.192.038-.077-.19v-.994l-.495.117-.076.42.038.533-.117.382-.341.038-.344-.23-.268-.341-.459-1.032v-.383l.459-.152.192-.192.151-.416.19-.424.307-.19.42-.343.994-1.567.381-.497-.801.802-.461.308-.572.112-.571-.037-.42-.151-.765-.382.268-1.948-.078-2.099.193-1.72 1.028-.802-.226-.496-.155-.306-.075-.343.038-.648.154-.537.571-.761.113-.344-.113-.193-.42-.572-.113-.305.076-.345.15-.227.156-.038.151.382.192.189.648.535.115.041.079.075.188.265.232.498-.042.266-.19.345-.188.689.188 2.062-.075.303.689.382.571.915.344 1.184-.039 1.148.384-.345.838-.307.459-.265-.154-.345v-.114l.075-.075.079-.268.609.306.535-.269.457-.42.537-.23.151-.152-.228-.306-.46-.457-.798-.307-.424-.265-.228-.575.19-.878.65-.457.84-.153h.689l.076-.075.075-.194.077-.188.192-.076.266.076.038.152-.038.193.075.151.65.457.231.306.151.42.19-1.183-.265-.344-.23-.459-.153-.571.038-.727.228-.608.268-.117.114.268-.19.457v.308l.307.381.303.496.155-.991.076-1.071.227-.878.689-.344.726.306 1.411 1.144.268-.153.076-.189.19.076.192.151.077.076.23-.037.038-.152v-.232l.114-.302.036-.268.115-1.147.154-.496.228-.419.268-.306.228.075.192 2.443-.076.576 1.987-1.604 1.718-1.718 3.359-4.469 3.743-3.589.265-.611.612-1.717.266-.345.499-.269.42-.608.647-1.26 2.138-3.017.878-1.757.154-.42v-.497l-.23-.345-.685-.457-.155-.227.382-.575 1.642.118.496-.459 1.26-1.68.079-.192.265-1.336.114-.269.116-.188.076-.077.152-.117-.152-.266-.23-.229h-.114l-.231-.878-.495-1.109-.113-.571.188-.382.919-1.26.383-.345h.303l1.26.307.382-.114 1.795-1.261.422-.154.34.154.269.04.726-.614.266-.19.689-.076 1.26-.419 1.641-.23 1.565-.496h.84l2.102.571.571.42.232-.344.38.269.84.113.42.231.42-.344 1.337-.727.61-.151.38-.383 1.035-1.642.457-.381.037-.153.571-.876.232-.572-.117-.307-.955-.765-.265-.15-.192-.268-.076-.652-.038-.265-.344-1.108.458.192.344.573.459 1.108.419.34.382.269.345-.115.113-.112.038-.155.574-.915.19-.232.228-.152.575-.23.225-.19.232-.533.19-.65.267-.266.383.571-1.411 2.102-.384.343v.419l-.418.955-1.68 2.826-.307.764.113.61.232.154.342.039.649-.039.269.076.42.42.226.152.689-.114.306-.534.229-.612.537-.265 1.83-.155 2.94 1.146 1.297.19 1.337-.265.344-.193.689-.458.225-.269.269-.57-.037-.269-.151-.342-.081-.764.232-1.948-.115-.307-1.145-1.525v-1.184l.383-.954.645-.651.728-.226.689-.499.533-1.183.269-1.299-.117-.953-.647.381-.688.23-.535-.154-.269-.764.154-.724.42-.689.88-1.031-.995-.191-1.374.191-.954-.42.228-2.021.23-.307.42-.727.232-.725-.384-.343-.154-.077-.152-.191-.231-.229-.761-.19-.154-.23.037-2.595-.305-.535-1.337-.345-.608-.382-.46-.495-.191-.496.076-.231.42-.8.117-.153.303.153.038.342-.152.88.269.533 1.87.918.418.459.115.344v.457l.079.841.226.685.307.192.382.115.42.381.457 1.146-.113 1.068-.839 1.872.458.495.572.077 1.335-.228.84.114.192.306-.229.459-.917 1.374-.113.571.306.382 1.524.268.308.457.037.652-.151.877-.652 1.564-.802 1.297-.57 1.376.113 1.833.307.764.344.609.266.652.116.839.151.726.382.877.496.765.42.497.495.226 1.873.382.496.345.42 1.604.42.458.726-.916.304-.037.612-.232.345-.037.303-.151.499-.614.341-.114.154.114.458.765 2.024 1.107 2.215-.305 4.086-2.331.726.154.84-.418.798-.614.726-.341-.343.723-.42.42-.458.345-.458.495-.534.345-1.414.154-.571.379-2.138 1.798-.84 1.141.574.803-.843.881-1.181.495-1.297.115-1.264-.307-1.639-1.067-3.322-.764h-.614l-1.755.306-2.596-.575h-2.598l-.42-.152-1.755-1.069-1.03-.304-5.309.416-.457-.226-.803-.878-.957-.764.499 1.028 3.55 3.629.421.152.229.268.685 1.834-.037-1.376.037-.42.117-.343.189-.228.421-.497.496-.229.688.037.688.192 4.237 1.757 1.336.228 1.148-.115.494.192 1.375 1.87.268.535-.23.154h-.42l-.383.076-1.601 1.49-.269.19-2.292.419-1.68-.382-.647.076-.496.231-.612.458-.384.608.156.689.42.458.459.307.534.188 1.91.08.227-.192-.076-.496-.114-.572.151-.537 2.522 1.949 1.528.802.952-.382.841.727 1.145 1.524.383.231.42.076 1.374.495.764.156.802-.081.915-.42-.075.42-.191.269-.574.535.154.268.115.61.115.343.036.193.077.572.038.112.154.081.383-.041.684.461 6.11 1.755 1.223-.192.228-.153.498-.532.304-.232.306-.113 3.818-.689 1.145-.571.459-.113.726.075 1.642.572.266.037.689-.037.23.037.265.192.23.04h.42l3.205-.537.423-.572-.269-1.261 1.795.878.65.458.303.114h.307l.382-.189.23-.039.955-.495.608-1.108.5-1.223.684-.763-.303 3.056-.117.533-.227.571 2.403-.343.689.231.075.495-.34.613-.5.495.193.039h.152l.155.037.152.232.609-.882.801.154.802.728.916 1.297.269.228h1.869l.65.268h.308l-.614-.916.306-.537.766-.228.8-.037v-.344l-.8-.534.037-.651.533-.648.65-.574.767-.266.493.459.917 1.755.151.686-.264.499-.345.457.038.496.382 1.492.038.301-.228.384-.154.42.037.344.345.152-.076.192-.269.495-.572.764.384.268.226-.117.231-.264.344-.156.763-.075 1.719.458.572.306.533.496-.533.306-1.029.266-.5.268-.457-.189-.077.803.077 1.028-.038.497-.648.113-.343-.038-.156-.227-.113-.268-.268-.228-.342-.155-.305-.077-.308.04-.342.154-.611.42-.726.916-.727.227-.304.039-.38-.076-.577-.42-.225-.077-.458.194-1.261.839-.456.189-.921 1.03-.151.268-1.109.457-2.212 1.378-1.069.114-1.069-.612-.498-.648-.268-.192-.265.229-.041.42.232.266.305.154.152.151-.152.538-.383.304-6.911 3.207-2.063 1.413-.914.956-.229.303-.117.23-.074.382.037.345.117.42-.042.341-.419.154-.341-.037-.575-.23-.307-.038-.457.076-.228.229-.192.307-.266.303-.42.343-.458.269-.574.191-.726.075-.571.155-3.591 2.747-.916.957-.42 1.143.116.614.841 2.326.686.116 1.069.533.648.228h2.178l.459-.265 1.067-1.145.495-.345.652-.115 4.543.384 1.26.496 1.109.725 1.945 1.719.268.151.535.23.269.19.342.651.266.381.764.459 1.071 1.336.457.42 1.374.382.65.344.266.609.305.42.689-.189 1.068-.652 1.145-.42 1.262-.189.532.228 1.681 1.529 2.1 1.335.764.995.495 1.756.117 1.108.113.382.535 1.068.076.268.116.685.341 1.68v.994l-.113.84-.188.725-.347.537-1.183.418-.42.535-.269.764-.188.878-.078.227-.116.154-.226.19.265.538.155.646.188 1.184.307.878.038.458-.113.689-.269.457-.383.458-.266.535.04.649.264.228.994.192.42.152-.611.269-1.564.037-.422.151-.228.156-.344.037-.648-.037-.268.076-.689.495-.265.113-.92.194-.112-.113.038.495.23.495 3.245 2.29.383.42.535.42.646-.037.651-.191.533-.037.345.305.915 1.182.194.383.188.801.421.381 2.291 1.072.611.151 2.025.038.343-.038.609-.189h.382l1.911.761.686.117.612-.075 3.285-1.568.683-.114.42-.155 1.035-.725.343-.34.42-.728.266-.651.381-.457 1.454-.306.382-.303.646-1.033.077-.151v-.269l.155-.151.037-.115.344.039h.42l.686.076.268-.076.306-.538 1.185-3.09 1.028-1.793.308-.383.152-.307 1.221-1.717h.114l.038.037v.114l.037.117.765-.803.994-.42 2.445-.536 1.142-.496 2.138-1.448 1.108-.42 2.101.38.495-.229.42-.307.994.231.534-.115.232-.192.188-.269.232-.227.341-.193.306-.036 1.032.036.609.232.384.533.268.576.303.457 1.297.188.84-1.334.65-1.87.765-1.377.534-.268 1.297-.303.534-.497.688-1.414.534-.382.765.457.192-.188.303-.232.116-.188 1.451 1.145-.19-1.297.039-.576.343-.494.458-.193.992.079.42-.193v-.264l-.878-.384-.19-.193-.117-.42.076-.342.154-.343.077-.497.268-.343 1.6-1.299 1.11-.535 1.26-.265h1.335l1.301.227 2.213.878 1.987 1.26.34.345.92 1.107.19.42.268.955.609.306 2.1-.382 2.33.151.459-.495.534-.993.688-.688.954.42v-.306l1.717 1.071 2.712.609.61-.152.115-.23.192-.724.113-.268.307-.192.345-.076 2.708-.113 2.176-.803.421-.382.077-.648-.381-.65-.84-.915-.193-.917v-.916l.269-2.519.226-.919.345-.878.382-.572.269-.113.686-.038.268-.155.189-.38-.075-.192-.19-.188-.117-.308.154-.877.42-.457.573-.157.725.118.917.496.343.114h.382l.992-.268.23-.46-.23-.99-.534-1.492-.458-.533-.457-.268-.496.117-.537.571-.457.153-.497-.458-.763-.992-.61-.114-1.797.42-.61-.154-.953-.648-.575-.117-.34.117-.269.265-.268.231h-.384l.269-.765-.23-.533-.495-.155-.497.42-.382.382-3.473-.037-.614.23-.646.647-.84.537-.115.191-.42 1.297-.917 1.183-1.107.231-1.183-.42-2.293-1.378-.534-.42-.228-.533.153-.764.23-.688-.079-.419-.723-.076-.499.305-.42.651-.264.799-.117.802-.077.192-.458.648-.151.155-.419.113-.156.269-.038.382-.114.42-.84.878-.647.42-5.384 1.487-1.145-.114-4.507-3.17-8.746-12.906-2.632-5.192-1.605-4.312-.305-.537-.345-.497-.265-.571-1.107-5.309-.269-.685-.152-.65-.152-2.789-.193-.724-.037-.342.037-.459.155-.42.533-.726.115-.193 1.297-.609.076-.42.041-.495.228-.383.343-.193.077.193.038.302.192.269.382.115h.304l2.864-.723 1.335-.842 1.032-1.183 1.795-2.789 1.032-1.068.227-.498.156-.684-.117-.383-.151-.345-.115-.571-.305-.651-.534-.801-.231-.878.65-.84.075.802.307.802.379.609.462.306.377.383.232.151.305.079.496.038.228.077-.609 1.642-.193 1.182.269.993.726.648.609-.04.536-.457.535-.571-.114 1.108-.421.723-1.107 1.147-.879 1.566-.305.765-.727.8-.84 1.682-1.563.84-3.172.953.153.42.079.188-1.07.69-.955 1.109-.116.42.536.188 1.144-.571.726-.534 1.033-.231.723-.609 1.222-.422.726-.763.765-1.07 1.605-3.284.646-.763 2.902-4.772.458-.458 1.071-.726.457-.458.916-1.298.458-.534.576-.42 3.586-1.834.994-.916 2.445-2.864.916-.727 1.68-.953 2.252-1.298.726.037 4.161-.802 2.176.308 1.147-.269h.533l.651.269.189.188.156.192.264.534.077.076.343.232v.226l-.038.269-.076.189.151.423.04-.079.04-.265.303-.117.306-.189.114.151v.65h.231l.189-1.298.574-.994 2.064-2.175.877-.686.991-.461 1.53-.304 1.259-.762h1.983l.23-.152.269-.307.342-.306.498-.152.84.265.533.038.496-.303.42.303.992.345.462.269 1.105 1.297.268.189v.802l-.383 1.567-.571 1.222-.612-.269h-.228v.345l.761.229.765-.725.574-1.185.228-1.184.306-1.067.571-.995.42-.991-.265-1.029.991-.155 1.604-1.567 1.068-.379.345-.192.994-.84.341-.19.536-.079 3.512-1.373 1.415-1.105.573-.155 1.028.192 1.07.534.689.877-.117 1.109.689-.307.496-.725.802-1.567 3.207-4.544 1.908-2.021 1.032-.382 3.932.723 1.298-.038 3.284-1.18 2.712.457.341-.192.764.192 1.185.458.269-.113.802-.462.151-.152.151-.075.995.802.764.303v.727l-.688 1.414 1.032-.498 1.639-2.29.614-.613-.496-1.143-.156-1.414.194-1.337.571-1.029.572-.382.688-.344.651-.42.42-.651.075-.916-.269-.495-.495-.231-.533-.037-1.146.192-.572-.075-.382-.458.075-.727.383-.802.915-1.26.764-1.373.191-1.26-.115-3.209.42-1.566.572-1.566.765-1.297 1.032-.728 6.375-.877.765-.342.572-.498 1.145-1.299.572-.42.458-.076 1.07.421.651-.076.304-.726.268-1.869.532-2.062.765-1.759 1.033-1.299 1.411-.571 4.926.19 1.642 1.108.611.152.612-.039 1.222-.341 4.544-.154.609.114 1.029.688.537.269.685-.04 1.302-.38.684.226.879.154 1.835-.38.916.075 3.053.802.995-.192.761-.762.498-1.145.228-1.298-.037-.307-.152-.61v-.307l.075-.42.307-.687.113-.343.077-.687-.039-.458-.42-.994-.306-.496-.227-.269-.08-.226.269-.42.344-.231 1.681-.303.188.037.08-.079.037-.42-.461-1.411.079-1.071.382-.877 1.525-2.861.576-.688 1.449-1.109.533-.61.383-.84.075-.878-.458-.764-.648-.154-1.602.574-.614.076-2.1-1.336 2.062-1.755.537-.688.686-.689-.303-.379-.231-.614-.306-1.182-.953-2.102-.308-.264-.303-.385-.078-.724.154-.041.266.041.306-.117.114-.378-.039-.155-.075-.19-.077-.268-.036-.34-.232-1.188-.608-.803-.802-.454-3.63-.462-.609.231-1.185.077.307-1.147 1.87-6.183.268-.386.765-.303.227-.419.193-.534.265-.499.612-.686.648-.343.726-.039 3.36 1.336 1.222-.155 1.336-1.066.572-.764.42-.917-.076-.878-.572-.763-.764-.115-.573.571-.536.689-.646.345-.383-.151-.572-.765-.305-.269-.345-.079-1.068.155-2.406-.533-.726-.308-.344-.457-.228-.65-.42-.84-.537-.534-.608-.42-.422-.575.232-2.327.533-.383 1.525.115 2.52-.878h.919l.915.155.46-.042.343-.227.152-.458-.075-1.488.151-.649.651-1.11.84-.798 1.793-1.224.574-.648.988-1.605.576-.496.726-.423.228-.416.038-1.68.419-1.567.076-.84-.344-.726zM302.285 288.195l-3.97-.955-9.776-2.405-1.218-.727-.727-.916-.458-1.297-.499-1.873-.535-.227v.802l.269 1.104.228.689.84 1.336.955.879 4.773 1.834 11.074 2.364 1.261.614.685.151-.382-.303zm29.973 6.759l-.382-.535-1.373.113-.306-.306-.303-.457-.727.075-1.26.575-.957-.727-.915-.038-2.1.42-4.353-.608-.268-.308h-.152l-.229.268 12.792 2.102zM236.88 309.5l-.495.42-.882.954-.495.42-.422.117-.457.076-.381.152-.152.42-.231.42-.61.496-1.528.839 2.331-.99 3.053-2.253 6.988-6.644-1.947 1.144z" fill="#fff" fill-opacity=".149" fill-rule="nonzero" stroke="#fff" stroke-opacity=".502" stroke-width=".75"/></svg>