<svg clip-rule="evenodd" fill-rule="evenodd" stroke-linejoin="round" stroke-miterlimit="1.414" viewBox="0 0 48 21" xmlns="http://www.w3.org/2000/svg"><path d="M48 10.5C48 4.701 43.299 0 37.5 0h-27A10.502 10.502 0 0 0 0 10.5C0 16.299 4.701 21 10.5 21h27C43.299 21 48 16.299 48 10.5z" fill="#0795e2"/><path d="M6.842 9.5v-.083c.166-2 1.916-2.834 3.5-2.834 1.583 0 3.416.917 3.583 2.834V9.5zm8.166-3.333c-1.083-1.334-2.75-2.084-4.5-2.084-4.083 0-6.166 3.25-6.166 6.334 0 1.75.666 3.416 1.75 4.583 1.083 1.167 2.666 1.75 4.416 1.75 2.084 0 3.917-.917 5.25-2.75l.084-.083-1.917-1.25v.083c-1 1.333-2.333 1.5-3.333 1.5-2 0-3.25-1.333-3.584-2.583V11.5h9.5v-.083c.167-1.834-.333-3.834-1.5-5.25" fill="#fff" fill-rule="nonzero"/><path d="M37.508 4.167c3.5 0 6.334 2.833 6.334 6.333s-2.834 6.333-6.334 6.333S31.175 14 31.175 10.5s2.833-6.333 6.333-6.333zm0 2.333a3.912 3.912 0 0 1 3.917 3.917 3.912 3.912 0 0 1-3.917 3.916 3.912 3.912 0 0 1-3.916-3.916A3.912 3.912 0 0 1 37.508 6.5z" fill="#fff"/><path d="M37.508 7.667c1.5 0 2.75 1.25 2.75 2.75s-1.25 2.75-2.75 2.75-2.75-1.25-2.75-2.75c-.083-1.5 1.167-2.75 2.75-2.75z" fill="#6abf6a"/><path d="M21.175 4.75l2.75 6 2.75-6h2.833l-5.583 11.417L18.342 4.75z" fill="#fff" fill-rule="nonzero"/></svg>